<svg width="24" height="25" viewBox="0 0 24 25" fill="none" xmlns="http://www.w3.org/2000/svg">
<g clip-path="url(#clip0_31_307)">
<path d="M0.00585938 24.9675H9.89184V19.2983H0.00585938V24.9675ZM2.16802 20.7664H7.77652V22.172H2.16802V20.7664Z" fill="#666666"/>
<path d="M0.00585938 17.8927H9.89184V12.3173H0.00585938V17.8927ZM2.16802 13.8129H7.77652V15.2184H2.16802V13.8129Z" fill="#666666"/>
<path d="M11.2969 24.9676H23.994V12.3173H11.2969V24.9676ZM19.7304 13.8129H21.136V15.2531H19.7304V13.8129ZM16.9192 13.8129H18.3248V15.2531H16.9192V13.8129ZM14.1081 13.8129H15.5137V15.2531H14.1081V13.8129ZM14.1081 16.5106H21.136V22.1564H14.1081V16.5106Z" fill="#666666"/>
<path d="M19.7304 4.20804V0.967529H15.5137V4.21039L11.2969 7.02153V9.50604H23.994V7.01919L19.7304 4.20804Z" fill="#666666"/>
</g>
<defs>
<clipPath id="clip0_31_307">
<rect width="24" height="24" fill="white" transform="translate(0 0.967529)"/>
</clipPath>
</defs>
</svg>
