<svg width="24" height="25" viewBox="0 0 24 25" fill="none" xmlns="http://www.w3.org/2000/svg">
<g clip-path="url(#clip0_31_159)">
<path d="M4.45312 12.2644H10.5938C11.1336 12.2644 11.6265 12.4685 12 12.8032C12.3735 12.4685 12.8664 12.2644 13.4062 12.2644H19.5469V4.72386C19.5469 4.33737 19.2376 4.01576 18.8512 4.0144C18.8453 4.0144 19.0911 4.0144 5.15625 4.0144C4.75612 4.0144 4.45312 4.34244 4.45312 4.72386V12.2644Z" fill="#666666"/>
<path d="M12.7031 14.3738V16.0144H19.5469C19.5469 14.9758 19.5469 14.7625 19.5469 13.6707H13.4062C13.0185 13.6707 12.7031 13.9861 12.7031 14.3738Z" fill="#666666"/>
<path d="M21.7272 8.89051C21.2938 8.90401 20.9531 9.26757 20.9531 9.70116C20.9531 9.81245 20.9531 17.1169 20.9531 16.7176C20.9531 17.1059 20.6383 17.4207 20.25 17.4207C19.6879 17.4207 3.21623 17.4207 3.75 17.4207C3.36169 17.4207 3.04688 17.1059 3.04688 16.7176C3.04688 16.4581 3.04688 9.63352 3.04688 9.70116C3.04688 9.26757 2.70623 8.90401 2.27283 8.89051C1.02361 8.8516 0 9.85098 0 11.0926V18.3113C0 19.4763 0.944391 20.4207 2.10938 20.4207H3.04688V21.1977C3.04688 21.5763 3.33783 21.9021 3.71602 21.9199C4.1198 21.9389 4.45312 21.6172 4.45312 21.2176V20.4207H19.5469V21.1977C19.5469 21.5763 19.8378 21.9021 20.216 21.9199C20.6198 21.9389 20.9531 21.6172 20.9531 21.2176V20.4207H21.8906C23.0556 20.4207 24 19.4763 24 18.3113V11.1322C24 9.83415 22.9684 8.85184 21.7272 8.89051Z" fill="#666666"/>
<path d="M11.2969 14.3738C11.2969 13.9861 10.9815 13.6707 10.5938 13.6707H4.45312V16.0144H11.2969V14.3738Z" fill="#666666"/>
</g>
<defs>
<clipPath id="clip0_31_159">
<rect width="24" height="24" fill="white" transform="translate(0 0.967529)"/>
</clipPath>
</defs>
</svg>
