<svg width="44" height="51" viewBox="0 0 44 51" fill="none" xmlns="http://www.w3.org/2000/svg">
<path d="M43.239 14.3875L43.2374 14.3486C43.2157 13.8683 43.2012 13.3602 43.1924 12.7948C43.1516 10.038 40.9601 7.75755 38.2028 7.60343C32.4541 7.28262 28.0069 5.40808 24.2071 1.7044L24.1747 1.6735C22.9353 0.537106 21.0657 0.537106 19.8259 1.6735L19.7935 1.7044C15.9937 5.40808 11.5465 7.28262 5.7978 7.60381C3.04093 7.75755 0.849011 10.038 0.808194 12.7952C0.799802 13.3567 0.784925 13.8649 0.763181 14.3486L0.760892 14.439C0.649122 20.301 0.510267 27.5966 2.9509 34.2185C4.29291 37.86 6.32538 41.0254 8.99146 43.6274C12.028 46.5907 16.0051 48.9432 20.8124 50.6194C20.9688 50.6739 21.1313 50.7182 21.2969 50.7514C21.5303 50.7979 21.7653 50.8212 22.0003 50.8212C22.2353 50.8212 22.4707 50.7979 22.7037 50.7514C22.8693 50.7182 23.0329 50.6735 23.1901 50.6186C27.9916 48.9394 31.9646 46.5857 34.9985 43.6228C37.6634 41.0201 39.6959 37.8539 41.039 34.2116C43.4888 27.5699 43.3503 20.2606 43.239 14.3875ZM38.2863 33.1965C35.7122 40.1759 30.4575 44.9691 22.2219 47.8491C22.1926 47.8591 22.1613 47.8678 22.1289 47.8743C22.0438 47.8911 21.9572 47.8911 21.871 47.8739C21.8389 47.8675 21.8077 47.8591 21.7787 47.8491C13.5344 44.9744 8.27621 40.1839 5.70396 33.2042C3.45444 27.1003 3.58185 20.4032 3.69439 14.495L3.69515 14.4622C3.71804 13.9545 3.7333 13.4227 3.74169 12.8383C3.76 11.6142 4.73503 10.6014 5.96145 10.5331C9.21462 10.3515 12.0726 9.72287 14.6986 8.61127C17.3212 7.5012 19.6505 5.93641 21.8187 3.82766C21.929 3.73458 22.072 3.7342 22.1819 3.82766C24.3505 5.93641 26.6798 7.5012 29.302 8.61127C31.928 9.72287 34.786 10.3515 38.0395 10.5331C39.266 10.6014 40.241 11.6142 40.2589 12.8387C40.2677 13.4262 40.283 13.9579 40.3058 14.4622C40.418 20.3773 40.5424 27.0797 38.2863 33.1965Z" fill="#244D4D"/>
<path d="M21.9998 13.3614C15.1287 13.3614 9.53906 18.9514 9.53906 25.8221C9.53906 32.6931 15.1287 38.2832 21.9998 38.2832C28.8704 38.2832 34.4605 32.6931 34.4605 25.8221C34.4605 18.9514 28.8704 13.3614 21.9998 13.3614ZM21.9998 35.3489C16.7466 35.3489 12.4729 31.0753 12.4729 25.8221C12.4729 20.5688 16.7466 16.2952 21.9998 16.2952C27.2526 16.2952 31.5262 20.5688 31.5262 25.8221C31.5262 31.0753 27.2526 35.3489 21.9998 35.3489Z" fill="#244D4D"/>
<path d="M25.5806 21.9536L19.7929 27.7412L18.222 26.1704C17.6491 25.5974 16.7202 25.5974 16.1472 26.1704C15.5746 26.7433 15.5746 27.6722 16.1472 28.2448L18.7557 30.8533C19.0422 31.1398 19.4176 31.2828 19.7929 31.2828C20.1683 31.2828 20.5437 31.1398 20.8301 30.8533L27.6554 24.028C28.228 23.4551 28.228 22.5262 27.6554 21.9536C27.0824 21.3802 26.1535 21.3802 25.5806 21.9536Z" fill="#244D4D"/>
</svg>
